<svg width="13" height="12" viewBox="0 0 13 12" fill="none" xmlns="http://www.w3.org/2000/svg">
<mask id="path-1-inside-1" fill="white">
<path fill-rule="evenodd" clip-rule="evenodd" d="M2.16492 0C0.969267 0 0 0.969268 0 2.16492V6.92774C0 8.12339 0.969268 9.09265 2.16492 9.09265L3.03087 9.09265L2.58215 11.4858C2.50995 11.8709 2.94554 12.1462 3.26239 11.9158L7.14421 9.09265H9.95862C11.1543 9.09265 12.1235 8.12339 12.1235 6.92774V2.16492C12.1235 0.969267 11.1543 0 9.95862 0H2.16492Z"/>
</mask>
<path d="M2.16492 9.09265V9.85038H2.16492L2.16492 9.09265ZM3.03087 9.09265L3.77562 9.23229L3.94387 8.33492L3.03087 8.33493L3.03087 9.09265ZM2.58215 11.4858L1.83741 11.3462L2.58215 11.4858ZM3.26239 11.9158L2.81672 11.303H2.81672L3.26239 11.9158ZM7.14421 9.09265V8.33493H6.89781L6.69854 8.47986L7.14421 9.09265ZM0.757721 2.16492C0.757721 1.38775 1.38775 0.757721 2.16492 0.757721V-0.757721C0.550788 -0.757721 -0.757721 0.55079 -0.757721 2.16492H0.757721ZM0.757721 6.92774V2.16492H-0.757721V6.92774H0.757721ZM2.16492 8.33493C1.38775 8.33493 0.757721 7.70491 0.757721 6.92774H-0.757721C-0.757721 8.54187 0.550791 9.85038 2.16492 9.85038V8.33493ZM3.03087 8.33493L2.16491 8.33493L2.16492 9.85038L3.03088 9.85037L3.03087 8.33493ZM3.32689 11.6255L3.77562 9.23229L2.28613 8.95301L1.83741 11.3462L3.32689 11.6255ZM2.81672 11.303C3.05435 11.1302 3.38104 11.3367 3.32689 11.6255L1.83741 11.3462C1.63886 12.4051 2.83673 13.1623 3.70806 12.5286L2.81672 11.303ZM6.69854 8.47986L2.81672 11.303L3.70806 12.5286L7.58988 9.70545L6.69854 8.47986ZM9.95862 8.33493H7.14421V9.85038H9.95862V8.33493ZM11.3658 6.92774C11.3658 7.70491 10.7358 8.33493 9.95862 8.33493V9.85038C11.5728 9.85038 12.8813 8.54186 12.8813 6.92774H11.3658ZM11.3658 2.16492V6.92774H12.8813V2.16492H11.3658ZM9.95862 0.757721C10.7358 0.757721 11.3658 1.38775 11.3658 2.16492H12.8813C12.8813 0.550788 11.5727 -0.757721 9.95862 -0.757721V0.757721ZM2.16492 0.757721H9.95862V-0.757721H2.16492V0.757721Z" fill="black" fill-opacity="0.75" mask="url(#path-1-inside-1)"/>
</svg>
