<svg width="11" height="12" viewBox="0 0 11 12" fill="none" xmlns="http://www.w3.org/2000/svg">
<path d="M0.309701 6.74273C0.160049 6.34713 0.452344 5.92405 0.875304 5.92405H9.85095C10.2739 5.92405 10.5662 6.34713 10.4166 6.74273L8.57559 11.6092C8.48663 11.8444 8.26143 12 8.00999 12H2.71627C2.46483 12 2.23963 11.8444 2.15066 11.6092L0.309701 6.74273Z" fill="black" fill-opacity="0.75"/>
<path d="M9.90538 5.31646H0.846406C0.43153 5.31646 0.138933 4.90312 0.326891 4.53326C1.71367 1.80441 4.11755 3.3031 5.17226 0.594929C5.29605 0.277077 5.63499 0.0780319 5.95671 0.191414C8.18323 0.976118 9.57857 2.27766 10.4569 4.54095C10.6043 4.92083 10.3129 5.31646 9.90538 5.31646Z" fill="black" fill-opacity="0.75"/>
</svg>
