<svg width="11" height="12" viewBox="0 0 11 12" fill="none" xmlns="http://www.w3.org/2000/svg">
<path fill-rule="evenodd" clip-rule="evenodd" d="M2.76923 1.84615V0.461538C2.76923 0.206638 2.97587 0 3.23077 0H6.92308C7.17798 0 7.38461 0.206638 7.38461 0.461539V1.84615H9.69231C9.94721 1.84615 10.1538 2.05279 10.1538 2.30769C10.1538 2.56259 9.94721 2.76923 9.69231 2.76923H9.23077V11.5385C9.23077 11.7934 9.02413 12 8.76923 12H1.38462C1.12971 12 0.923077 11.7934 0.923077 11.5385V2.76923H0.461538C0.206638 2.76923 0 2.56259 0 2.30769C0 2.05279 0.206637 1.84615 0.461538 1.84615H2.76923ZM3.69231 1.38462C3.69231 1.12971 3.89894 0.923077 4.15385 0.923077H6C6.2549 0.923077 6.46154 1.12971 6.46154 1.38462V1.84615H3.69231V1.38462ZM1.84615 2.76923V10.6154C1.84615 10.8703 2.05279 11.0769 2.30769 11.0769H7.84615C8.10105 11.0769 8.30769 10.8703 8.30769 10.6154V2.76923H1.84615Z" fill="currentColor"/>
</svg>
